# xmcd
#
# Track frame offsets: 
#        182
#        13112
#        32045
#        50810
#        67827
#        83050
#        102702
#        118797
#        137757
#        156807
#
# Disc length: 2401 seconds
#
# Revision: 3
# Processed by: cddbd v1.4PL0 Copyright (c) Steve Scherf et al.
# Submitted via: ExactAudioCopy v0.95a3
#
DISCID=86095f0a
DTITLE=Michael Martin Murphey - Best Of Country
DYEAR=1990
DGENRE=Country
TTITLE0=What's Forever For
TTITLE1=Still Taking Chances
TTITLE2=Carolina In The Pines
TTITLE3=What She Wants
TTITLE4=The Two-Step Is Easy
TTITLE5=Hearts In The Right Place
TTITLE6=Love Affairs
TTITLE7=Ring Of Truth
TTITLE8=Lost River
TTITLE9=Crystal
EXTD=YEAR: 1990
EXTT0=
EXTT1=
EXTT2=
EXTT3=
EXTT4=
EXTT5=
EXTT6=
EXTT7=
EXTT8=
EXTT9=
PLAYORDER=
